<svg width="240" height="220" viewBox="0 0 240 220" fill="none" xmlns="http://www.w3.org/2000/svg">
  <defs>
    <linearGradient id="studivoGradVert" x1="56" y1="16" x2="184" y2="128" gradientUnits="userSpaceOnUse">
      <stop offset="0%" stop-color="#6C63FF"/>
      <stop offset="50%" stop-color="#8B5CF6"/>
      <stop offset="100%" stop-color="#22D3EE"/>
    </linearGradient>
  </defs>

  <!-- Centered Icon Mark -->
  <g transform="translate(56, 10)">
    <path d="M78 28C60 28 42 36 34 50C28 60 30 72 40 78L64 92C74 98 84 104 76 114C70 120 54 122 40 114" 
          fill="none" stroke="url(#studivoGradVert)" stroke-width="14" stroke-linecap="round" stroke-linejoin="round"/>
    <path d="M42 36C52 24 74 18 90 26C102 32 106 46 98 58L74 94C68 104 60 112 44 114" 
          fill="none" stroke="url(#studivoGradVert)" stroke-width="12" stroke-linecap="round" opacity="0.85"/>
    <circle cx="92" cy="34" r="8" fill="#22D3EE"/>
  </g>

  <!-- Centered Wordmark Typography -->
  <text x="120" y="172" text-anchor="middle" font-family="'Outfit', 'Plus Jakarta Sans', sans-serif" font-size="38" font-weight="800" fill="#FFFFFF" letter-spacing="-1">Studivo</text>
  <text x="120" y="196" text-anchor="middle" font-family="'Plus Jakarta Sans', sans-serif" font-size="10" font-weight="600" fill="#94A3B8" letter-spacing="3.5">STUDENT SUCCESS PLATFORM</text>
</svg>
